<?xml version="1.0" encoding="UTF-8" standalone="no"?>
<!DOCTYPE svg PUBLIC "-//W3C//DTD SVG 1.1//EN" "http://www.w3.org/Graphics/SVG/1.1/DTD/svg11.dtd">
<svg width="100%" height="100%" viewBox="0 0 1200 140" version="1.1" xmlns="http://www.w3.org/2000/svg" xmlns:xlink="http://www.w3.org/1999/xlink" xml:space="preserve" xmlns:serif="http://www.serif.com/" style="fill-rule:evenodd;clip-rule:evenodd;stroke-linecap:round;stroke-linejoin:round;stroke-miterlimit:1.5;">
    <g id="Artboard1" transform="matrix(1,0,0,0.466667,0,0)">
        <rect x="0" y="0" width="1200" height="300" style="fill:none;"/>
        <clipPath id="_clip1">
            <rect x="0" y="0" width="1200" height="300"/>
        </clipPath>
        <g clip-path="url(#_clip1)">
            <g transform="matrix(1,0,0,1.38358,-8,-15.7637)">
                <path d="M-14.729,122.274C-14.729,122.274 218.339,40.83 399.422,46.895C580.505,52.96 699.206,123.141 804.91,110.144C910.614,97.148 934.874,76.354 966.065,75.487C997.256,74.621 1024.12,87.617 1080.43,83.285C1136.75,78.953 1210.4,49.495 1210.4,49.495" style="fill:none;stroke:black;stroke-width:1.19px;"/>
            </g>
            <g transform="matrix(1.00917,0,0,1.38358,-7.86496,22.5968)">
                <path d="M-14.729,122.274C-14.729,122.274 218.339,40.83 399.422,46.895C580.505,52.96 682.996,117.076 788.7,104.079C894.404,91.083 933.157,68.233 964.348,67.367C995.539,66.5 1024.12,87.617 1080.43,83.285C1136.75,78.953 1210.4,49.495 1210.4,49.495" style="fill:none;stroke:black;stroke-width:1.18px;"/>
            </g>
            <g transform="matrix(1.01768,0,0,1.38358,-7.73958,60.9573)">
                <path d="M-14.729,122.274C-14.729,122.274 218.339,40.83 399.422,46.895C580.505,52.96 667.049,116.209 772.753,103.213C878.457,90.217 933.171,64.224 964.362,63.357C995.554,62.491 1024.12,87.617 1080.43,83.285C1136.75,78.953 1210.4,49.495 1210.4,49.495" style="fill:none;stroke:black;stroke-width:1.17px;"/>
            </g>
            <g transform="matrix(1.02617,0,0,1.38358,-7.61458,99.3178)">
                <path d="M-14.729,122.274C-14.729,122.274 218.339,40.83 399.422,46.895C580.505,52.96 635.324,117.076 741.028,104.079C846.732,91.083 932.341,59.025 963.532,58.159C994.723,57.292 1024.12,87.617 1080.43,83.285C1136.75,78.953 1210.4,49.495 1210.4,49.495" style="fill:none;stroke:black;stroke-width:1.17px;"/>
            </g>
            <g transform="matrix(1.02617,0,0,1.38358,-7.61458,137.678)">
                <path d="M-14.729,122.274C-14.729,122.274 218.339,40.83 399.422,46.895C580.505,52.96 626.036,116.209 731.74,103.213C837.444,90.217 938.251,52.094 969.442,51.227C1000.63,50.361 1024.12,87.617 1080.43,83.285C1136.75,78.953 1210.4,49.495 1210.4,49.495" style="fill:none;stroke:black;stroke-width:1.17px;"/>
            </g>
            <g id="musical-note.svg" transform="matrix(-0.0888441,0,0,0.18614,429.982,113.554)">
                <g transform="matrix(1,0,0,1,-255.995,-255.995)">
                    <clipPath id="_clip2">
                        <rect x="0" y="0" width="511.991" height="511.991"/>
                    </clipPath>
                    <g clip-path="url(#_clip2)">
                        <g>
                            <g>
                                <path d="M362.677,125.949C308.024,73.004 307.137,9.158 307.137,8.535C307.137,3.823 303.313,-0 298.602,-0C293.89,-0 290.067,3.824 290.067,8.535L290.067,364.797C264.29,338.653 213.658,333.497 166.456,354.93C133.808,369.765 108.355,394.936 98.36,422.275C91.839,440.123 92.223,457.595 99.453,472.805C111.505,498.147 140.739,511.991 174.847,511.991C193.907,511.991 214.494,507.664 234.442,498.607C267.09,483.772 292.551,458.601 302.538,431.262C306.652,419.995 307.147,408.6 307.147,396.796L307.147,171.255C316.135,190.921 329.775,212.533 350.814,232.915C394.149,274.892 400.397,299.364 401.071,307.942C401.421,312.398 405.142,315.803 409.572,315.803C409.683,315.803 409.794,315.803 409.913,315.795C414.497,315.616 418.107,311.852 418.107,307.268L418.107,222.443C418.815,215.811 419.344,180.841 362.677,125.949Z" style="fill-rule:nonzero;"/>
                            </g>
                        </g>
                    </g>
                </g>
            </g>
            <g id="musical-note.svg1" serif:id="musical-note.svg" transform="matrix(-0.0888441,0,0,0.18614,760.09,239.424)">
                <g transform="matrix(1,0,0,1,-255.995,-255.995)">
                    <clipPath id="_clip3">
                        <rect x="0" y="0" width="511.991" height="511.991"/>
                    </clipPath>
                    <g clip-path="url(#_clip3)">
                        <g>
                            <g>
                                <path d="M362.677,125.949C308.024,73.004 307.137,9.158 307.137,8.535C307.137,3.823 303.313,-0 298.602,-0C293.89,-0 290.067,3.824 290.067,8.535L290.067,364.797C264.29,338.653 213.658,333.497 166.456,354.93C133.808,369.765 108.355,394.936 98.36,422.275C91.839,440.123 92.223,457.595 99.453,472.805C111.505,498.147 140.739,511.991 174.847,511.991C193.907,511.991 214.494,507.664 234.442,498.607C267.09,483.772 292.551,458.601 302.538,431.262C306.652,419.995 307.147,408.6 307.147,396.796L307.147,171.255C316.135,190.921 329.775,212.533 350.814,232.915C394.149,274.892 400.397,299.364 401.071,307.942C401.421,312.398 405.142,315.803 409.572,315.803C409.683,315.803 409.794,315.803 409.913,315.795C414.497,315.616 418.107,311.852 418.107,307.268L418.107,222.443C418.815,215.811 419.344,180.841 362.677,125.949Z" style="fill-rule:nonzero;"/>
                            </g>
                        </g>
                    </g>
                </g>
            </g>
            <g id="musical-note.svg2" serif:id="musical-note.svg" transform="matrix(-0.0888441,0,0,0.18614,777.419,205.859)">
                <g transform="matrix(1,0,0,1,-255.995,-255.995)">
                    <clipPath id="_clip4">
                        <rect x="0" y="0" width="511.991" height="511.991"/>
                    </clipPath>
                    <g clip-path="url(#_clip4)">
                        <g>
                            <g>
                                <path d="M362.677,125.949C308.024,73.004 307.137,9.158 307.137,8.535C307.137,3.823 303.313,-0 298.602,-0C293.89,-0 290.067,3.824 290.067,8.535L290.067,364.797C264.29,338.653 213.658,333.497 166.456,354.93C133.808,369.765 108.355,394.936 98.36,422.275C91.839,440.123 92.223,457.595 99.453,472.805C111.505,498.147 140.739,511.991 174.847,511.991C193.907,511.991 214.494,507.664 234.442,498.607C267.09,483.772 292.551,458.601 302.538,431.262C306.652,419.995 307.147,408.6 307.147,396.796L307.147,171.255C316.135,190.921 329.775,212.533 350.814,232.915C394.149,274.892 400.397,299.364 401.071,307.942C401.421,312.398 405.142,315.803 409.572,315.803C409.683,315.803 409.794,315.803 409.913,315.795C414.497,315.616 418.107,311.852 418.107,307.268L418.107,222.443C418.815,215.811 419.344,180.841 362.677,125.949Z" style="fill-rule:nonzero;"/>
                            </g>
                        </g>
                    </g>
                </g>
            </g>
            <g id="musical-note.svg3" serif:id="musical-note.svg" transform="matrix(-0.0888441,0,0,0.18614,68.6824,193.871)">
                <g transform="matrix(1,0,0,1,-255.995,-255.995)">
                    <clipPath id="_clip5">
                        <rect x="0" y="0" width="511.991" height="511.991"/>
                    </clipPath>
                    <g clip-path="url(#_clip5)">
                        <g>
                            <g>
                                <path d="M362.677,125.949C308.024,73.004 307.137,9.158 307.137,8.535C307.137,3.823 303.313,-0 298.602,-0C293.89,-0 290.067,3.824 290.067,8.535L290.067,364.797C264.29,338.653 213.658,333.497 166.456,354.93C133.808,369.765 108.355,394.936 98.36,422.275C91.839,440.123 92.223,457.595 99.453,472.805C111.505,498.147 140.739,511.991 174.847,511.991C193.907,511.991 214.494,507.664 234.442,498.607C267.09,483.772 292.551,458.601 302.538,431.262C306.652,419.995 307.147,408.6 307.147,396.796L307.147,171.255C316.135,190.921 329.775,212.533 350.814,232.915C394.149,274.892 400.397,299.364 401.071,307.942C401.421,312.398 405.142,315.803 409.572,315.803C409.683,315.803 409.794,315.803 409.913,315.795C414.497,315.616 418.107,311.852 418.107,307.268L418.107,222.443C418.815,215.811 419.344,180.841 362.677,125.949Z" style="fill-rule:nonzero;"/>
                            </g>
                        </g>
                    </g>
                </g>
            </g>
            <g id="musical-note.svg4" serif:id="musical-note.svg" transform="matrix(0.0888441,0,0,0.190822,396.191,51.2181)">
                <g transform="matrix(1,0,0,1,-255.995,-255.995)">
                    <clipPath id="_clip6">
                        <rect x="0" y="0" width="511.991" height="511.991"/>
                    </clipPath>
                    <g clip-path="url(#_clip6)">
                        <g>
                            <g>
                                <path d="M362.677,125.949C308.024,73.004 307.137,9.158 307.137,8.535C307.137,3.823 303.313,-0 298.602,-0C293.89,-0 290.067,3.824 290.067,8.535L290.067,364.797C264.29,338.653 213.658,333.497 166.456,354.93C133.808,369.765 108.355,394.936 98.36,422.275C91.839,440.123 92.223,457.595 99.453,472.805C111.505,498.147 140.739,511.991 174.847,511.991C193.907,511.991 214.494,507.664 234.442,498.607C267.09,483.772 292.551,458.601 302.538,431.262C306.652,419.995 307.147,408.6 307.147,396.796L307.147,171.255C316.135,190.921 329.775,212.533 350.814,232.915C394.149,274.892 400.397,299.364 401.071,307.942C401.421,312.398 405.142,315.803 409.572,315.803C409.683,315.803 409.794,315.803 409.913,315.795C414.497,315.616 418.107,311.852 418.107,307.268L418.107,222.443C418.815,215.811 419.344,180.841 362.677,125.949Z" style="fill-rule:nonzero;"/>
                            </g>
                        </g>
                    </g>
                </g>
            </g>
            <g id="musical-note.svg5" serif:id="musical-note.svg" transform="matrix(0.0888441,0,0,0.190822,1079.8,217.846)">
                <g transform="matrix(1,0,0,1,-255.995,-255.995)">
                    <clipPath id="_clip7">
                        <rect x="0" y="0" width="511.991" height="511.991"/>
                    </clipPath>
                    <g clip-path="url(#_clip7)">
                        <g>
                            <g>
                                <path d="M362.677,125.949C308.024,73.004 307.137,9.158 307.137,8.535C307.137,3.823 303.313,-0 298.602,-0C293.89,-0 290.067,3.824 290.067,8.535L290.067,364.797C264.29,338.653 213.658,333.497 166.456,354.93C133.808,369.765 108.355,394.936 98.36,422.275C91.839,440.123 92.223,457.595 99.453,472.805C111.505,498.147 140.739,511.991 174.847,511.991C193.907,511.991 214.494,507.664 234.442,498.607C267.09,483.772 292.551,458.601 302.538,431.262C306.652,419.995 307.147,408.6 307.147,396.796L307.147,171.255C316.135,190.921 329.775,212.533 350.814,232.915C394.149,274.892 400.397,299.364 401.071,307.942C401.421,312.398 405.142,315.803 409.572,315.803C409.683,315.803 409.794,315.803 409.913,315.795C414.497,315.616 418.107,311.852 418.107,307.268L418.107,222.443C418.815,215.811 419.344,180.841 362.677,125.949Z" style="fill-rule:nonzero;"/>
                            </g>
                        </g>
                    </g>
                </g>
            </g>
            <g id="quaver.svg" transform="matrix(0.13204,-0.0132223,0.0119111,0.227697,575.134,187.451)">
                <g transform="matrix(1,0,0,1,-256,-256)">
                    <clipPath id="_clip8">
                        <rect x="0" y="0" width="512" height="512"/>
                    </clipPath>
                    <g clip-path="url(#_clip8)">
                        <g>
                            <path d="M182.179,159.75L212.179,159.75C212.179,128.748 216.594,92.951 188.036,64.394C179.068,55.426 170.581,48.324 163.094,42.058C143.295,25.488 135.261,18.046 135.261,0L105.261,0L105.261,221.406C94.527,214.207 81.627,210 67.761,210C30.541,210 0.261,240.28 0.261,277.5C0.261,314.72 30.541,345 67.761,345C105.209,345 135.896,314.287 135.229,276.25L135.261,276.25L135.261,57.781C144.719,66.043 155.338,74.122 166.823,85.606C185.852,104.637 182.179,129.615 182.179,159.75Z" style="fill-rule:nonzero;"/>
                            <path d="M254.739,154.682L254.739,388.407C244.006,381.208 231.106,377.001 217.239,377.001C180.019,377.001 149.739,407.281 149.739,444.501C149.739,481.721 180.019,512.001 217.239,512.001C254.459,512.001 284.739,481.721 284.739,444.501L284.739,238.6C334.459,228.752 432.352,209.367 481.739,199.586L481.739,328.406C471.006,321.207 458.106,317 444.239,317C407.019,317 376.739,347.28 376.739,384.5C376.739,421.72 407.019,452 444.239,452C481.459,452 511.739,421.72 511.739,384.5L511.739,103.734L254.739,154.682Z" style="fill-rule:nonzero;"/>
                        </g>
                    </g>
                </g>
            </g>
            <g id="quaver.svg1" serif:id="quaver.svg" transform="matrix(-0.110155,-0.0110308,-0.0141307,0.270127,1000.21,114.943)">
                <g transform="matrix(1,0,0,1,-256,-256)">
                    <clipPath id="_clip9">
                        <rect x="0" y="0" width="512" height="512"/>
                    </clipPath>
                    <g clip-path="url(#_clip9)">
                        <g>
                            <path d="M182.179,159.75L212.179,159.75C212.179,128.748 216.594,92.951 188.036,64.394C179.068,55.426 170.581,48.324 163.094,42.058C143.295,25.488 135.261,18.046 135.261,0L105.261,0L105.261,221.406C94.527,214.207 81.627,210 67.761,210C30.541,210 0.261,240.28 0.261,277.5C0.261,314.72 30.541,345 67.761,345C105.209,345 135.896,314.287 135.229,276.25L135.261,276.25L135.261,57.781C144.719,66.043 155.338,74.122 166.823,85.606C185.852,104.637 182.179,129.615 182.179,159.75Z" style="fill-rule:nonzero;"/>
                            <path d="M254.739,154.682L254.739,388.407C244.006,381.208 231.106,377.001 217.239,377.001C180.019,377.001 149.739,407.281 149.739,444.501C149.739,481.721 180.019,512.001 217.239,512.001C254.459,512.001 284.739,481.721 284.739,444.501L284.739,238.6C334.459,228.752 432.352,209.367 481.739,199.586L481.739,328.406C471.006,321.207 458.106,317 444.239,317C407.019,317 376.739,347.28 376.739,384.5C376.739,421.72 407.019,452 444.239,452C481.459,452 511.739,421.72 511.739,384.5L511.739,103.734L254.739,154.682Z" style="fill-rule:nonzero;"/>
                        </g>
                    </g>
                </g>
            </g>
            <g id="quaver.svg2" serif:id="quaver.svg" transform="matrix(-0.110155,-0.0110308,-0.0141307,0.270127,142.448,110.148)">
                <g transform="matrix(1,0,0,1,-256,-256)">
                    <clipPath id="_clip10">
                        <rect x="0" y="0" width="512" height="512"/>
                    </clipPath>
                    <g clip-path="url(#_clip10)">
                        <g>
                            <path d="M182.179,159.75L212.179,159.75C212.179,128.748 216.594,92.951 188.036,64.394C179.068,55.426 170.581,48.324 163.094,42.058C143.295,25.488 135.261,18.046 135.261,0L105.261,0L105.261,221.406C94.527,214.207 81.627,210 67.761,210C30.541,210 0.261,240.28 0.261,277.5C0.261,314.72 30.541,345 67.761,345C105.209,345 135.896,314.287 135.229,276.25L135.261,276.25L135.261,57.781C144.719,66.043 155.338,74.122 166.823,85.606C185.852,104.637 182.179,129.615 182.179,159.75Z" style="fill-rule:nonzero;"/>
                            <path d="M254.739,154.682L254.739,388.407C244.006,381.208 231.106,377.001 217.239,377.001C180.019,377.001 149.739,407.281 149.739,444.501C149.739,481.721 180.019,512.001 217.239,512.001C254.459,512.001 284.739,481.721 284.739,444.501L284.739,238.6C334.459,228.752 432.352,209.367 481.739,199.586L481.739,328.406C471.006,321.207 458.106,317 444.239,317C407.019,317 376.739,347.28 376.739,384.5C376.739,421.72 407.019,452 444.239,452C481.459,452 511.739,421.72 511.739,384.5L511.739,103.734L254.739,154.682Z" style="fill-rule:nonzero;"/>
                        </g>
                    </g>
                </g>
            </g>
            <g id="music.svg" transform="matrix(0.135886,0.0524006,-0.0378734,0.188009,703.253,131.08)">
                <g transform="matrix(1,0,0,1,-238.934,-238.934)">
                    <g>
                        <g>
                            <path d="M472.184,4.349C468.557,1.133 463.744,-0.41 458.923,0.099L151.723,34.232C143.076,35.189 136.533,42.497 136.534,51.196L136.534,355.324C121.06,346.085 103.356,341.246 85.334,341.329C38.281,341.33 0,371.948 0,409.597C0,447.246 38.281,477.864 85.333,477.864C132.385,477.864 170.666,447.246 170.666,409.597L170.666,151.89L443.733,121.46L443.733,321.14C428.253,311.919 410.551,307.098 392.533,307.197C345.48,307.197 307.2,337.815 307.2,375.464C307.2,413.113 345.481,443.731 392.533,443.731C439.585,443.731 477.866,413.113 477.866,375.464L477.866,17.064C477.866,12.21 475.8,7.586 472.184,4.349ZM85.333,443.73C57.583,443.73 34.133,428.097 34.133,409.597C34.133,391.097 57.583,375.464 85.333,375.464C113.083,375.464 136.533,391.097 136.533,409.597C136.533,428.097 113.084,443.73 85.333,443.73ZM392.533,409.597C364.783,409.597 341.333,393.964 341.333,375.464C341.333,356.964 364.783,341.331 392.533,341.331C420.283,341.331 443.733,356.964 443.733,375.464C443.733,393.964 420.284,409.597 392.533,409.597ZM443.733,87.122L170.666,117.467L170.666,66.557L443.733,36.127L443.733,87.122Z" style="fill-rule:nonzero;"/>
                        </g>
                    </g>
                </g>
            </g>
            <g id="music.svg1" serif:id="music.svg" transform="matrix(-0.100476,-0.0472177,-0.0453681,0.184805,1165.82,187.302)">
                <g transform="matrix(1,0,0,1,-238.934,-238.934)">
                    <g>
                        <g>
                            <path d="M472.184,4.349C468.557,1.133 463.744,-0.41 458.923,0.099L151.723,34.232C143.076,35.189 136.533,42.497 136.534,51.196L136.534,355.324C121.06,346.085 103.356,341.246 85.334,341.329C38.281,341.33 0,371.948 0,409.597C0,447.246 38.281,477.864 85.333,477.864C132.385,477.864 170.666,447.246 170.666,409.597L170.666,151.89L443.733,121.46L443.733,321.14C428.253,311.919 410.551,307.098 392.533,307.197C345.48,307.197 307.2,337.815 307.2,375.464C307.2,413.113 345.481,443.731 392.533,443.731C439.585,443.731 477.866,413.113 477.866,375.464L477.866,17.064C477.866,12.21 475.8,7.586 472.184,4.349ZM85.333,443.73C57.583,443.73 34.133,428.097 34.133,409.597C34.133,391.097 57.583,375.464 85.333,375.464C113.083,375.464 136.533,391.097 136.533,409.597C136.533,428.097 113.084,443.73 85.333,443.73ZM392.533,409.597C364.783,409.597 341.333,393.964 341.333,375.464C341.333,356.964 364.783,341.331 392.533,341.331C420.283,341.331 443.733,356.964 443.733,375.464C443.733,393.964 420.284,409.597 392.533,409.597ZM443.733,87.122L170.666,117.467L170.666,66.557L443.733,36.127L443.733,87.122Z" style="fill-rule:nonzero;"/>
                        </g>
                    </g>
                </g>
            </g>
            <g id="music.svg2" serif:id="music.svg" transform="matrix(0.120976,-0.100385,0.072555,0.167379,222.387,176.633)">
                <g transform="matrix(1,0,0,1,-238.934,-238.934)">
                    <g>
                        <g>
                            <path d="M472.184,4.349C468.557,1.133 463.744,-0.41 458.923,0.099L151.723,34.232C143.076,35.189 136.533,42.497 136.534,51.196L136.534,355.324C121.06,346.085 103.356,341.246 85.334,341.329C38.281,341.33 0,371.948 0,409.597C0,447.246 38.281,477.864 85.333,477.864C132.385,477.864 170.666,447.246 170.666,409.597L170.666,151.89L443.733,121.46L443.733,321.14C428.253,311.919 410.551,307.098 392.533,307.197C345.48,307.197 307.2,337.815 307.2,375.464C307.2,413.113 345.481,443.731 392.533,443.731C439.585,443.731 477.866,413.113 477.866,375.464L477.866,17.064C477.866,12.21 475.8,7.586 472.184,4.349ZM85.333,443.73C57.583,443.73 34.133,428.097 34.133,409.597C34.133,391.097 57.583,375.464 85.333,375.464C113.083,375.464 136.533,391.097 136.533,409.597C136.533,428.097 113.084,443.73 85.333,443.73ZM392.533,409.597C364.783,409.597 341.333,393.964 341.333,375.464C341.333,356.964 364.783,341.331 392.533,341.331C420.283,341.331 443.733,356.964 443.733,375.464C443.733,393.964 420.284,409.597 392.533,409.597ZM443.733,87.122L170.666,117.467L170.666,66.557L443.733,36.127L443.733,87.122Z" style="fill-rule:nonzero;"/>
                        </g>
                    </g>
                </g>
            </g>
            <g id="musical-note--1-.svg" serif:id="musical-note (1).svg" transform="matrix(0.122893,0,0,0.265135,358.285,157.009)">
                <g transform="matrix(1,0,0,1,-207.982,-207.982)">
                    <clipPath id="_clip11">
                        <rect x="0" y="0" width="415.963" height="415.963"/>
                    </clipPath>
                    <g clip-path="url(#_clip11)">
                        <path d="M328.712,264.539C341.64,242.907 350.216,215.547 351.88,188.475C352.936,171.099 349.064,152.859 340.68,135.707C327.528,108.763 304.936,93.627 283.112,79.003C266.824,68.091 251.432,57.787 240.552,43.067L238.6,40.443C232.168,31.803 224.904,22.011 223.752,13.787C222.6,5.467 215.048,-0.453 206.792,0.027C198.408,0.603 191.912,7.547 191.912,15.963L191.912,301.083C178.504,292.955 161.992,287.963 143.912,287.963C99.816,287.963 63.912,316.667 63.912,351.963C63.912,387.259 99.816,415.963 143.912,415.963C188.008,415.963 223.912,387.259 223.912,351.963L223.912,165.467C247.944,174.651 287.272,198.043 298.088,252.667C296.072,255.643 294.152,258.843 291.912,261.403C286.056,268.027 286.696,278.139 293.352,283.963C299.944,289.851 310.056,289.147 315.912,282.523C320.2,277.659 324.008,271.963 327.656,266.011C328.04,265.563 328.393,265.083 328.712,264.539Z" style="fill-rule:nonzero;"/>
                    </g>
                </g>
            </g>
            <g id="musical-note--1-.svg1" serif:id="musical-note (1).svg" transform="matrix(-0.115575,0.0578011,0.0651432,0.249345,911.932,189.376)">
                <g transform="matrix(1,0,0,1,-207.982,-207.982)">
                    <clipPath id="_clip12">
                        <rect x="0" y="0" width="415.963" height="415.963"/>
                    </clipPath>
                    <g clip-path="url(#_clip12)">
                        <path d="M328.712,264.539C341.64,242.907 350.216,215.547 351.88,188.475C352.936,171.099 349.064,152.859 340.68,135.707C327.528,108.763 304.936,93.627 283.112,79.003C266.824,68.091 251.432,57.787 240.552,43.067L238.6,40.443C232.168,31.803 224.904,22.011 223.752,13.787C222.6,5.467 215.048,-0.453 206.792,0.027C198.408,0.603 191.912,7.547 191.912,15.963L191.912,301.083C178.504,292.955 161.992,287.963 143.912,287.963C99.816,287.963 63.912,316.667 63.912,351.963C63.912,387.259 99.816,415.963 143.912,415.963C188.008,415.963 223.912,387.259 223.912,351.963L223.912,165.467C247.944,174.651 287.272,198.043 298.088,252.667C296.072,255.643 294.152,258.843 291.912,261.403C286.056,268.027 286.696,278.139 293.352,283.963C299.944,289.851 310.056,289.147 315.912,282.523C320.2,277.659 324.008,271.963 327.656,266.011C328.04,265.563 328.393,265.083 328.712,264.539Z" style="fill-rule:nonzero;"/>
                    </g>
                </g>
            </g>
        </g>
    </g>
</svg>
